<svg xmlns="http://www.w3.org/2000/svg" xmlns:xlink="http://www.w3.org/1999/xlink" version="1.1" baseProfile="tiny" x="0px" y="0px" viewBox="0 0 512 512" xml:space="preserve"><path d="M453.167,208.211H146.326c-1.166-2.161-2.397-4.289-3.693-6.377l312.104-90.373c5.306-1.536,8.359-7.082,6.823-12.387  l-13.138-45.37c-1.535-5.305-7.084-8.361-12.387-6.824L57.263,156.558c-2.548,0.738-4.697,2.457-5.978,4.78  c-0.827,1.502-1.24,3.178-1.234,4.863c-0.79,1.453-1.218,3.092-1.218,4.776v47.234v47.232c0,5.186,3.947,9.447,9,9.951v180.122  c0,5.523,4.478,10,10,10h376.334c5.522,0,10-4.477,10-10V275.395c5.053-0.502,9-4.766,9-9.949v-47.233  C463.167,212.688,458.689,208.211,453.167,208.211z M386.449,228.211l-27.233,27.233h-53.05l27.233-27.233H386.449z   M305.114,228.211l-27.233,27.233h-66.207l27.233-27.233H305.114z M210.622,228.211l-27.233,27.233h-22.955  c-0.786-9.289-2.658-18.43-5.532-27.233H210.622z M431.993,68.873l7.575,26.159l-27.313,7.908l-33.731-18.584L431.993,68.873z   M243.369,151.843l-33.733-18.584l0,0l63.594-18.415l33.733,18.584L243.369,151.843z M334.132,125.562l-33.732-18.584l50.958-14.755  l33.731,18.584L334.132,125.562z M182.467,141.125l33.734,18.584l-86.423,25.024c-1.848-2.048-21.068-20.716-21.068-20.716  c-0.438-0.421-0.912-0.796-1.412-1.127L182.467,141.125z M68.833,228.211v-47.177l28.88,0.163l12.429,11.977  c17.112,16.49,27.829,38.764,30.215,62.271H68.833V228.211z M434.167,445.518H77.833V275.443h73.031h283.303V445.518z   M443.167,255.444h-55.668l27.234-27.233h28.434V255.444z"></path><path d="M309.388,353.373l-79.634-66.299c-2.982-2.482-7.13-3.016-10.642-1.369c-3.513,1.646-5.757,5.176-5.757,9.055v132.597  c0,3.879,2.244,7.407,5.757,9.055c1.354,0.635,2.802,0.945,4.242,0.945c2.295,0,4.567-0.789,6.399-2.314l79.634-66.299  c2.282-1.899,3.603-4.716,3.603-7.685C312.989,358.088,311.67,355.271,309.388,353.373z M233.355,406.018v-89.92l54.004,44.961  L233.355,406.018z"></path></svg>